<svg xmlns="http://www.w3.org/2000/svg" version="1.1" xmlns:xlink="http://www.w3.org/1999/xlink" xmlns:svgjs="http://svgjs.dev/svgjs" viewBox="0 0 2400 800"><defs><linearGradient x1="50%" y1="0%" x2="50%" y2="100%" id="sssurf-grad"><stop stop-color="hsla(280, 54%, 68%, 1.00)" stop-opacity="1" offset="0%"></stop><stop stop-color="hsl(305, 77%, 80%)" stop-opacity="1" offset="100%"></stop></linearGradient></defs><g fill="url(#sssurf-grad)" transform="matrix(1,0,0,1,10.8282470703125,217.51415252685547)"><path d="M-10,10C33.75,13.958333333333332,114.58333333333334,33.583333333333336,200,29C285.41666666666663,24.416666666666668,316.66666666666663,-14.916666666666668,400,-12C483.33333333333337,-9.083333333333332,516.6666666666666,42.375,600,43C683.3333333333334,43.625,716.6666666666666,-5.666666666666667,800,-9C883.3333333333334,-12.333333333333332,916.6666666666666,26.166666666666668,1000,27C1083.3333333333333,27.833333333333332,1116.6666666666667,-7.916666666666667,1200,-5C1283.3333333333333,-2.083333333333333,1316.6666666666667,43.083333333333336,1400,41C1483.3333333333333,38.916666666666664,1516.6666666666667,-16.458333333333332,1600,-15C1683.3333333333333,-13.541666666666666,1716.6666666666667,47.375,1800,48C1883.3333333333333,48.625,1916.6666666666667,-12.833333333333334,2000,-12C2083.3333333333335,-11.166666666666666,2118.75,47.416666666666664,2200,52C2281.25,56.583333333333336,2296.25,-62.5,2390,10C2483.75,82.5,3252.0833333333335,214.58333333333331,2650,400C2047.9166666666665,585.4166666666667,156.25,795.8333333333334,-500,900" transform="matrix(1,0,0,1,0,35)" opacity="0.05"></path><path d="M-10,10C33.75,13.958333333333332,114.58333333333334,33.583333333333336,200,29C285.41666666666663,24.416666666666668,316.66666666666663,-14.916666666666668,400,-12C483.33333333333337,-9.083333333333332,516.6666666666666,42.375,600,43C683.3333333333334,43.625,716.6666666666666,-5.666666666666667,800,-9C883.3333333333334,-12.333333333333332,916.6666666666666,26.166666666666668,1000,27C1083.3333333333333,27.833333333333332,1116.6666666666667,-7.916666666666667,1200,-5C1283.3333333333333,-2.083333333333333,1316.6666666666667,43.083333333333336,1400,41C1483.3333333333333,38.916666666666664,1516.6666666666667,-16.458333333333332,1600,-15C1683.3333333333333,-13.541666666666666,1716.6666666666667,47.375,1800,48C1883.3333333333333,48.625,1916.6666666666667,-12.833333333333334,2000,-12C2083.3333333333335,-11.166666666666666,2118.75,47.416666666666664,2200,52C2281.25,56.583333333333336,2296.25,-62.5,2390,10C2483.75,82.5,3252.0833333333335,214.58333333333331,2650,400C2047.9166666666665,585.4166666666667,156.25,795.8333333333334,-500,900" transform="matrix(1,0,0,1,0,70)" opacity="0.21"></path><path d="M-10,10C33.75,13.958333333333332,114.58333333333334,33.583333333333336,200,29C285.41666666666663,24.416666666666668,316.66666666666663,-14.916666666666668,400,-12C483.33333333333337,-9.083333333333332,516.6666666666666,42.375,600,43C683.3333333333334,43.625,716.6666666666666,-5.666666666666667,800,-9C883.3333333333334,-12.333333333333332,916.6666666666666,26.166666666666668,1000,27C1083.3333333333333,27.833333333333332,1116.6666666666667,-7.916666666666667,1200,-5C1283.3333333333333,-2.083333333333333,1316.6666666666667,43.083333333333336,1400,41C1483.3333333333333,38.916666666666664,1516.6666666666667,-16.458333333333332,1600,-15C1683.3333333333333,-13.541666666666666,1716.6666666666667,47.375,1800,48C1883.3333333333333,48.625,1916.6666666666667,-12.833333333333334,2000,-12C2083.3333333333335,-11.166666666666666,2118.75,47.416666666666664,2200,52C2281.25,56.583333333333336,2296.25,-62.5,2390,10C2483.75,82.5,3252.0833333333335,214.58333333333331,2650,400C2047.9166666666665,585.4166666666667,156.25,795.8333333333334,-500,900" transform="matrix(1,0,0,1,0,105)" opacity="0.37"></path><path d="M-10,10C33.75,13.958333333333332,114.58333333333334,33.583333333333336,200,29C285.41666666666663,24.416666666666668,316.66666666666663,-14.916666666666668,400,-12C483.33333333333337,-9.083333333333332,516.6666666666666,42.375,600,43C683.3333333333334,43.625,716.6666666666666,-5.666666666666667,800,-9C883.3333333333334,-12.333333333333332,916.6666666666666,26.166666666666668,1000,27C1083.3333333333333,27.833333333333332,1116.6666666666667,-7.916666666666667,1200,-5C1283.3333333333333,-2.083333333333333,1316.6666666666667,43.083333333333336,1400,41C1483.3333333333333,38.916666666666664,1516.6666666666667,-16.458333333333332,1600,-15C1683.3333333333333,-13.541666666666666,1716.6666666666667,47.375,1800,48C1883.3333333333333,48.625,1916.6666666666667,-12.833333333333334,2000,-12C2083.3333333333335,-11.166666666666666,2118.75,47.416666666666664,2200,52C2281.25,56.583333333333336,2296.25,-62.5,2390,10C2483.75,82.5,3252.0833333333335,214.58333333333331,2650,400C2047.9166666666665,585.4166666666667,156.25,795.8333333333334,-500,900" transform="matrix(1,0,0,1,0,140)" opacity="0.53"></path><path d="M-10,10C33.75,13.958333333333332,114.58333333333334,33.583333333333336,200,29C285.41666666666663,24.416666666666668,316.66666666666663,-14.916666666666668,400,-12C483.33333333333337,-9.083333333333332,516.6666666666666,42.375,600,43C683.3333333333334,43.625,716.6666666666666,-5.666666666666667,800,-9C883.3333333333334,-12.333333333333332,916.6666666666666,26.166666666666668,1000,27C1083.3333333333333,27.833333333333332,1116.6666666666667,-7.916666666666667,1200,-5C1283.3333333333333,-2.083333333333333,1316.6666666666667,43.083333333333336,1400,41C1483.3333333333333,38.916666666666664,1516.6666666666667,-16.458333333333332,1600,-15C1683.3333333333333,-13.541666666666666,1716.6666666666667,47.375,1800,48C1883.3333333333333,48.625,1916.6666666666667,-12.833333333333334,2000,-12C2083.3333333333335,-11.166666666666666,2118.75,47.416666666666664,2200,52C2281.25,56.583333333333336,2296.25,-62.5,2390,10C2483.75,82.5,3252.0833333333335,214.58333333333331,2650,400C2047.9166666666665,585.4166666666667,156.25,795.8333333333334,-500,900" transform="matrix(1,0,0,1,0,175)" opacity="0.68"></path><path d="M-10,10C33.75,13.958333333333332,114.58333333333334,33.583333333333336,200,29C285.41666666666663,24.416666666666668,316.66666666666663,-14.916666666666668,400,-12C483.33333333333337,-9.083333333333332,516.6666666666666,42.375,600,43C683.3333333333334,43.625,716.6666666666666,-5.666666666666667,800,-9C883.3333333333334,-12.333333333333332,916.6666666666666,26.166666666666668,1000,27C1083.3333333333333,27.833333333333332,1116.6666666666667,-7.916666666666667,1200,-5C1283.3333333333333,-2.083333333333333,1316.6666666666667,43.083333333333336,1400,41C1483.3333333333333,38.916666666666664,1516.6666666666667,-16.458333333333332,1600,-15C1683.3333333333333,-13.541666666666666,1716.6666666666667,47.375,1800,48C1883.3333333333333,48.625,1916.6666666666667,-12.833333333333334,2000,-12C2083.3333333333335,-11.166666666666666,2118.75,47.416666666666664,2200,52C2281.25,56.583333333333336,2296.25,-62.5,2390,10C2483.75,82.5,3252.0833333333335,214.58333333333331,2650,400C2047.9166666666665,585.4166666666667,156.25,795.8333333333334,-500,900" transform="matrix(1,0,0,1,0,210)" opacity="0.84"></path><path d="M-10,10C33.75,13.958333333333332,114.58333333333334,33.583333333333336,200,29C285.41666666666663,24.416666666666668,316.66666666666663,-14.916666666666668,400,-12C483.33333333333337,-9.083333333333332,516.6666666666666,42.375,600,43C683.3333333333334,43.625,716.6666666666666,-5.666666666666667,800,-9C883.3333333333334,-12.333333333333332,916.6666666666666,26.166666666666668,1000,27C1083.3333333333333,27.833333333333332,1116.6666666666667,-7.916666666666667,1200,-5C1283.3333333333333,-2.083333333333333,1316.6666666666667,43.083333333333336,1400,41C1483.3333333333333,38.916666666666664,1516.6666666666667,-16.458333333333332,1600,-15C1683.3333333333333,-13.541666666666666,1716.6666666666667,47.375,1800,48C1883.3333333333333,48.625,1916.6666666666667,-12.833333333333334,2000,-12C2083.3333333333335,-11.166666666666666,2118.75,47.416666666666664,2200,52C2281.25,56.583333333333336,2296.25,-62.5,2390,10C2483.75,82.5,3252.0833333333335,214.58333333333331,2650,400C2047.9166666666665,585.4166666666667,156.25,795.8333333333334,-500,900" transform="matrix(1,0,0,1,0,245)" opacity="1"></path></g></svg>